
<svg xmlns="http://www.w3.org/2000/svg" version="1.1" xmlns:xlink="http://www.w3.org/1999/xlink" preserveAspectRatio="none" x="0px" y="0px"  viewBox="0 0 1003 599">
<defs>
<g id="Layer1_0_FILL">
<path fill="#183883" stroke="none" d="
M 255.45 262.8
L 269.75 262.8 276.9 234.75 196.55 234.75 189.15 262.75 201.75 262.75 209.95 386.65 270.65 386.65 365.6 234.75 292.95 234.75 284.55 262.8 298.85 262.8 255.45 338.8 255.45 262.8
M 141 268.15
L 139.75 283.5 172.85 283.5 185.4 234.75 32 234.75 19.55 283.65 53 283.65 59.65 268.15 74.9 268.15 75.25 268.3 53.45 358.45 34.25 358.45 26.75 386.65 120.15 386.65 127.55 358.55 105.4 358.55 105.4 358.45 127 268.15 141 268.15
M 434 294.35
Q 425.372265625 290.509765625 419.6 285.5
L 419.6 285.45
Q 415.75625 281.8982421875 416.3 276.8 416.441015625 272.8375 420 269.9 428.98828125 263.40078125 445.85 267.9
L 446.8 280 475.55 280
Q 476.124609375 258.9283203125 487.25 236.9 408.4068359375 222.5447265625 375.1 251.8 357.901171875 266.9056640625 359.5 291.05 361.601171875 308.9302734375 386.3 321.5 407.2833984375 331.628125 409.3 337.65 411.9423828125 343.995703125 406.6 349.35 396.808984375 357.7349609375 375.25 353.7
L 375.25 339.05 343.9 339.05 332.15 382.75
Q 354.0767578125 389.1412109375 382.4 389.4 425.6705078125 389.280859375 449.3 369.15 451.133203125 367.6185546875 452.75 366 470.0603515625 348.78359375 466.7 324.6 463.097265625 307.52890625 434 294.35 Z"/>
</g>

<g id="Layer0_0_FILL">
<path fill="#DE4019" stroke="none" d="
M 748.25 289.4
Q 742.544921875 288.122265625 736.75 285.9 724.4748046875 279.3625 713.95 276.5 683.8517578125 268.2853515625 668.25 290.05 642.7380859375 332.4796875 623.7 332.4 606.4404296875 354.7076171875 588.2 366 569.0986328125 377.8140625 548.95 377.6
L 548.95 371.65 518.4 379.1
Q 551.937109375 392.385546875 593.3 378.3 607.1658203125 373.237890625 619.65 366 631.8888671875 358.9076171875 642.8 349.75 689.331640625 354.2212890625 713.95 344.95 720.8462890625 342.3509765625 726 338.65 736.925 344.3587890625 748.25 347.85 785.289453125 359.2197265625 826.85 347
L 837.15 355.45
Q 860.0623046875 334.6763671875 923 353.9 943.2392578125 361.4048828125 956.1 374.4 958.7931640625 376.8517578125 954.7 379.75
L 985 386.1
Q 972.911328125 366.0095703125 902.7 319 899.7482421875 317.41171875 897.05 315.85 858.8111328125 293.4791015625 878.15 281.7 891.8150390625 274.2775390625 908.7 286.3
L 908.7 291.6 930.75 291.6 937.6 283.4 904.15 249.45 903.95 248.75 901.8 229.25 891.95 240.65 891.35 240.95
Q 862.9064453125 232.8375 831.2 258.5
L 805.05 278.6
Q 800.597265625 281.428515625 796.1 283.6 772.771875 295.0220703125 748.25 289.4
M 688.55 268.65
Q 673.0474609375 259.5439453125 658.3 265 630.6916015625 279.173046875 606.8 257.9 579.53515625 238.708984375 558.2 257.55 582.717578125 257.125 590.65 262.05 598.5662109375 267.0109375 584.1 268 594.6197265625 271.881640625 601.8 278.6 618.5677734375 296.1447265625 636 287.95 676.578515625 265.879296875 688.55 268.65
M 749.7 276.65
L 749.7 277.4
Q 768.076171875 284.1068359375 796.1 268.45 810.6392578125 260.3205078125 827.75 246.15 858.8591796875 223.5734375 890.1 234.45
L 890.75 234.95 898.25 226.35
Q 886.0439453125 210.593359375 853.65 210.7 823.890234375 212.9375 808 226.4
L 813.4 232.2
Q 803.987109375 235.5748046875 796.1 241.15 790.021875 245.4521484375 784.85 251.05
L 795.9 251.2
Q 776.2404296875 278.96328125 749.7 276.65 Z"/>
</g>
</defs>

<g transform="matrix( 1, 0, 0, 1, 0,0) ">
<use xlink:href="#Layer1_0_FILL"/>
</g>

<g transform="matrix( 1, 0, 0, 1, 0,0) ">
<use xlink:href="#Layer0_0_FILL"/>
</g>
</svg>
